<mxfile host="app.diagrams.net" modified="2024-02-26T07:52:34.223Z" agent="Mozilla/5.0 (Windows NT 10.0; Win64; x64) AppleWebKit/537.36 (KHTML, like Gecko) Chrome/121.0.0.0 Safari/537.36" etag="FBNNY0GAe67b9VkuOqvg" version="23.1.5" type="github">
  <diagram name="第 1 页" id="mpUMhZ0BJkU8J4fjbCIk">
    <mxGraphModel dx="1434" dy="780" grid="1" gridSize="10" guides="1" tooltips="1" connect="1" arrows="1" fold="1" page="1" pageScale="1" pageWidth="827" pageHeight="1169" math="0" shadow="0">
      <root>
        <mxCell id="0" />
        <mxCell id="1" parent="0" />
        <mxCell id="fWhYQuoF3215lFM1JFTs-7" style="edgeStyle=orthogonalEdgeStyle;rounded=0;orthogonalLoop=1;jettySize=auto;html=1;entryX=0.5;entryY=0;entryDx=0;entryDy=0;" edge="1" parent="1" source="fWhYQuoF3215lFM1JFTs-1" target="fWhYQuoF3215lFM1JFTs-3">
          <mxGeometry relative="1" as="geometry" />
        </mxCell>
        <mxCell id="fWhYQuoF3215lFM1JFTs-1" value="提取单张发票补偿要素" style="rounded=0;whiteSpace=wrap;html=1;" vertex="1" parent="1">
          <mxGeometry x="339" y="350" width="150" height="50" as="geometry" />
        </mxCell>
        <mxCell id="fWhYQuoF3215lFM1JFTs-6" style="edgeStyle=orthogonalEdgeStyle;rounded=0;orthogonalLoop=1;jettySize=auto;html=1;entryX=0.5;entryY=0;entryDx=0;entryDy=0;" edge="1" parent="1" source="fWhYQuoF3215lFM1JFTs-2" target="fWhYQuoF3215lFM1JFTs-1">
          <mxGeometry relative="1" as="geometry" />
        </mxCell>
        <mxCell id="fWhYQuoF3215lFM1JFTs-2" value="根据税号提取所有&lt;br&gt;待补偿发票要素" style="rounded=0;whiteSpace=wrap;html=1;" vertex="1" parent="1">
          <mxGeometry x="339" y="200" width="150" height="50" as="geometry" />
        </mxCell>
        <mxCell id="fWhYQuoF3215lFM1JFTs-8" style="edgeStyle=orthogonalEdgeStyle;rounded=0;orthogonalLoop=1;jettySize=auto;html=1;entryX=0.5;entryY=0;entryDx=0;entryDy=0;" edge="1" parent="1" source="fWhYQuoF3215lFM1JFTs-3" target="fWhYQuoF3215lFM1JFTs-4">
          <mxGeometry relative="1" as="geometry" />
        </mxCell>
        <mxCell id="fWhYQuoF3215lFM1JFTs-3" value="单张发票查验补偿" style="rounded=0;whiteSpace=wrap;html=1;" vertex="1" parent="1">
          <mxGeometry x="339" y="510" width="150" height="50" as="geometry" />
        </mxCell>
        <mxCell id="fWhYQuoF3215lFM1JFTs-9" style="edgeStyle=orthogonalEdgeStyle;rounded=0;orthogonalLoop=1;jettySize=auto;html=1;entryX=0.5;entryY=0;entryDx=0;entryDy=0;" edge="1" parent="1" source="fWhYQuoF3215lFM1JFTs-4" target="fWhYQuoF3215lFM1JFTs-5">
          <mxGeometry relative="1" as="geometry" />
        </mxCell>
        <mxCell id="fWhYQuoF3215lFM1JFTs-4" value="存储查验结果成批" style="rounded=0;whiteSpace=wrap;html=1;" vertex="1" parent="1">
          <mxGeometry x="339" y="650" width="150" height="50" as="geometry" />
        </mxCell>
        <mxCell id="fWhYQuoF3215lFM1JFTs-5" value="批量更新查验结果" style="rounded=0;whiteSpace=wrap;html=1;" vertex="1" parent="1">
          <mxGeometry x="339" y="797" width="150" height="50" as="geometry" />
        </mxCell>
      </root>
    </mxGraphModel>
  </diagram>
</mxfile>
